<mxfile host="app.diagrams.net" modified="2020-08-21T18:52:18.524Z" agent="5.0 (Windows NT 10.0; Win64; x64) AppleWebKit/537.36 (KHTML, like Gecko) Chrome/84.0.4147.135 Safari/537.36" etag="U2ULjTleZ-4XVnbT9hEt" version="13.6.4" type="github">
  <diagram id="FUeOlEywuho-R2ZNXmGK" name="Page-1">
    <mxGraphModel dx="593" dy="383" grid="1" gridSize="10" guides="1" tooltips="1" connect="1" arrows="1" fold="1" page="1" pageScale="1" pageWidth="827" pageHeight="1169" math="0" shadow="0">
      <root>
        <mxCell id="0zXreXzW0SwigxUEHb2c-0" />
        <mxCell id="0zXreXzW0SwigxUEHb2c-1" parent="0zXreXzW0SwigxUEHb2c-0" />
      </root>
    </mxGraphModel>
  </diagram>
</mxfile>
